<?xml version="1.0" encoding="iso-8859-1"?>
<!-- Generator: Adobe Illustrator 19.0.0, SVG Export Plug-In . SVG Version: 6.00 Build 0)  -->
<svg version="1.1" id="Layer_1" xmlns="http://www.w3.org/2000/svg" xmlns:xlink="http://www.w3.org/1999/xlink" x="0px" y="0px"
	 viewBox="0 0 509.287 509.287" style="enable-background:new 0 0 509.287 509.287;" xml:space="preserve">
<circle style="fill:#FBD303;" cx="254.644" cy="254.644" r="254.644"/>
<polygon style="fill:#F0582F;" points="449.611,362.13 128.17,362.13 32.551,254.644 128.17,147.158 449.611,147.158 "/>
<path style="fill:#FCFCFD;" d="M312.964,254.644l37.298-37.298c9.833-9.833,9.833-26.109,0-35.942
	c-9.833-9.833-26.109-9.833-35.942,0l-37.298,37.298l-37.298-37.298c-9.833-9.833-26.109-9.833-35.942,0
	c-9.833,9.833-9.833,26.109,0,35.942l37.298,37.298l-37.298,37.298c-9.833,9.833-9.833,26.109,0,35.942
	c10.511,10.511,27.465,8.477,35.942,0l37.298-37.298l37.298,37.298c9.833,9.833,28.143,8.138,35.942,0
	c9.833-9.833,9.833-26.109,0-35.942L312.964,254.644z"/>
<g>
</g>
<g>
</g>
<g>
</g>
<g>
</g>
<g>
</g>
<g>
</g>
<g>
</g>
<g>
</g>
<g>
</g>
<g>
</g>
<g>
</g>
<g>
</g>
<g>
</g>
<g>
</g>
<g>
</g>
</svg>
