<svg xmlns="http://www.w3.org/2000/svg" height="511pt" version="1.1" viewBox="-112 0 511 511.99791" width="511pt">
<g id="surface1">
<path d="M 274.453125 186.015625 L 187.226562 142.023438 L 187.21875 142.039062 C 185.027344 140.996094 183.265625 140.558594 180.6875 142.046875 L 121.835938 176.320312 C 116.847656 179.199219 112.804688 186.925781 112.804688 193.574219 L 112.804688 256.597656 L 65.828125 283.71875 C 60.839844 286.597656 56.796875 294.324219 56.796875 300.972656 L 56.796875 363.996094 L 9.53125 391.285156 C 4.542969 394.164062 0.5 401.890625 0.5 408.542969 L 0.5 459.523438 C 0.5 462.449219 1.3125 464.625 2.613281 465.960938 L 91.476562 511.222656 C 93.089844 512.300781 95.25 512.292969 97.632812 510.917969 L 262.875 415.21875 C 271.128906 410.453125 277.816406 397.671875 277.816406 386.667969 L 277.816406 193.441406 C 277.816406 189.652344 276.503906 187.035156 274.453125 186.015625 Z M 274.453125 186.015625 " style=" stroke:none;fill-rule:nonzero;fill:rgb(60.784314%,60.784314%,60.784314%);fill-opacity:1;" />
<path d="M 200.902344 238.140625 L 200.902344 301.164062 L 153.929688 328.285156 C 148.941406 331.164062 144.898438 338.890625 144.898438 345.539062 L 144.898438 408.5625 L 97.628906 435.851562 C 92.640625 438.730469 88.597656 446.457031 88.597656 453.105469 L 88.597656 504.085938 C 88.597656 510.738281 92.640625 513.792969 97.628906 510.914062 L 262.875 415.214844 C 271.128906 410.449219 277.816406 397.667969 277.816406 386.664062 L 277.816406 193.441406 C 277.816406 186.789062 273.773438 183.734375 268.785156 186.613281 L 209.933594 220.886719 C 204.945312 223.765625 200.902344 231.492188 200.902344 238.140625 Z M 200.902344 238.140625 " style=" stroke:none;fill-rule:nonzero;fill:rgb(81.960784%,81.960784%,81.960784%);fill-opacity:1;" />
<path d="M 97.628906 435.851562 L 144.898438 408.5625 L 56.796875 363.996094 L 9.53125 391.285156 C 4.542969 394.167969 0.5 401.890625 0.5 408.542969 L 88.597656 453.109375 C 88.597656 446.457031 92.644531 438.730469 97.628906 435.851562 Z M 97.628906 435.851562 " style=" stroke:none;fill-rule:nonzero;fill:rgb(68.627451%,68.627451%,68.627451%);fill-opacity:1;" />
<path d="M 153.929688 328.285156 L 200.902344 301.164062 L 112.804688 256.597656 L 65.828125 283.71875 C 60.839844 286.597656 56.796875 294.324219 56.796875 300.972656 L 144.898438 345.539062 C 144.898438 338.890625 148.941406 331.164062 153.929688 328.285156 Z M 153.929688 328.285156 " style=" stroke:none;fill-rule:nonzero;fill:rgb(68.627451%,68.627451%,68.627451%);fill-opacity:1;" />
<path d="M 209.933594 220.886719 L 268.785156 186.613281 C 270.933594 185.371094 272.902344 185.238281 274.453125 186.015625 L 187.226562 142.023438 L 187.21875 142.039062 C 185.027344 140.996094 183.265625 140.558594 180.6875 142.046875 L 121.835938 176.320312 C 116.847656 179.199219 112.804688 186.925781 112.804688 193.574219 L 200.90625 238.140625 C 200.902344 231.488281 204.945312 223.765625 209.933594 220.886719 Z M 209.933594 220.886719 " style=" stroke:none;fill-rule:nonzero;fill:rgb(68.627451%,68.627451%,68.627451%);fill-opacity:1;" />
<path d="M 288.113281 82.054688 L 193.628906 136.601562 L 193.628906 54.550781 L 288.113281 0 L 269.289062 51.894531 Z M 288.113281 82.054688 " style=" stroke:none;fill-rule:nonzero;fill:rgb(90.980392%,29.803922%,23.921569%);fill-opacity:1;" />
<path d="M 193.628906 195.476562 C 190.390625 195.476562 187.769531 192.851562 187.769531 189.613281 L 187.769531 54.015625 C 187.769531 50.777344 190.390625 48.15625 193.628906 48.15625 C 196.867188 48.15625 199.488281 50.777344 199.488281 54.015625 L 199.488281 189.613281 C 199.488281 192.851562 196.867188 195.476562 193.628906 195.476562 Z M 193.628906 195.476562 " style=" stroke:none;fill-rule:nonzero;fill:rgb(39.607843%,39.607843%,39.607843%);fill-opacity:1;" />
</g>
</svg>